<svg width="25" height="26" viewBox="0 0 25 26" fill="none" xmlns="http://www.w3.org/2000/svg">
<path d="M16.0417 5.40167L14.875 10.2083H21.6767C22.0389 10.2083 22.3962 10.2927 22.7202 10.4547C23.0442 10.6167 23.326 10.8519 23.5433 11.1417C23.7607 11.4315 23.9076 11.7679 23.9724 12.1243C24.0372 12.4807 24.0181 12.8473 23.9167 13.195L21.1983 22.5283C21.057 23.013 20.7622 23.4387 20.3583 23.7417C19.9544 24.0446 19.4632 24.2083 18.9583 24.2083H3.20833C2.58949 24.2083 1.996 23.9625 1.55842 23.5249C1.12083 23.0873 0.875 22.4938 0.875 21.875V12.5417C0.875 11.9228 1.12083 11.3293 1.55842 10.8918C1.996 10.4542 2.58949 10.2083 3.20833 10.2083H6.42833C6.86243 10.2081 7.28786 10.0868 7.65678 9.85801C8.0257 9.62923 8.32349 9.30208 8.51667 8.91333L12.5417 0.875C13.0918 0.881813 13.6334 1.01286 14.1258 1.25836C14.6182 1.50386 15.0487 1.85746 15.3853 2.29274C15.7219 2.72802 15.9557 3.23372 16.0694 3.77207C16.183 4.31042 16.1735 4.86749 16.0417 5.40167Z" stroke="#1E2939" stroke-width="1.75" stroke-linecap="round" stroke-linejoin="round"/>
</svg>
